<svg width="7073" height="1024" viewBox="0 0 7073 1024" fill="none"
    xmlns="http://www.w3.org/2000/svg">
    <g filter="url(#filter0_d_0_1)">
        <mask id="mask0_0_1" style="mask-type:alpha" maskUnits="userSpaceOnUse" x="100" y="100"
            width="712" height="712">
            <path fill-rule="evenodd" clip-rule="evenodd"
                d="M812 395.342C812 386.893 812.003 378.442 811.952 369.992C811.909 362.874 811.827 355.757 811.634 348.642C811.215 333.135 810.3 317.495 807.541 302.161C804.743 286.605 800.174 272.127 792.974 257.994C785.896 244.102 776.649 231.39 765.617 220.369C754.587 209.348 741.867 200.111 727.965 193.039C713.811 185.84 699.313 181.274 683.735 178.478C668.393 175.724 652.743 174.811 637.23 174.393C630.108 174.2 622.985 174.119 615.861 174.075C607.403 174.023 598.946 174.027 590.488 174.027C590.488 174.027 530.638 173.676 492.288 173.676C455.565 173.676 455.565 100.255 418.842 100.255C381.178 99.52 322.38 100.607 322.38 100.607C313.906 100.607 305.432 100.603 296.958 100.654C289.819 100.698 282.684 100.78 275.547 100.972C259.998 101.391 244.313 102.305 228.935 105.062C213.336 107.857 198.816 112.421 184.644 119.616C170.712 126.688 157.964 135.926 146.911 146.949C135.86 157.969 126.596 170.678 119.505 184.567C112.285 198.708 107.707 213.194 104.902 228.758C102.14 244.087 101.225 259.722 100.804 275.222C100.613 282.338 100.53 289.454 100.486 296.572C100.435 305.023 100 315.52 100 323.971L100.003 419.062L100 493.268L100.439 590.38C100.439 598.842 100.435 607.303 100.486 615.765C100.53 622.893 100.613 630.019 100.805 637.144C101.225 652.671 102.142 668.333 104.906 683.689C107.71 699.265 112.287 713.763 119.501 727.915C126.594 741.827 135.859 754.555 146.911 765.592C157.964 776.628 170.708 785.877 184.637 792.959C198.818 800.168 213.345 804.74 228.953 807.539C244.324 810.297 260.004 811.212 275.547 811.631C282.684 811.824 289.82 811.906 296.959 811.949C305.433 812.001 313.906 811.997 322.38 811.997L419.714 812H493.343L590.488 811.997C598.946 811.997 607.403 812.001 615.861 811.949C622.985 811.906 630.108 811.824 637.23 811.631C652.749 811.211 668.404 810.296 683.753 807.536C699.322 804.737 713.813 800.166 727.959 792.962C741.863 785.881 754.586 776.63 765.617 765.592C776.647 754.557 785.893 741.83 792.971 727.921C800.176 713.762 804.745 699.257 807.545 683.67C810.301 668.321 811.215 652.665 811.634 637.144C811.827 630.018 811.909 622.892 811.952 615.765C812.004 607.303 812 598.842 812 590.38C812 590.38 811.995 494.983 811.995 493.268V492.405C811.995 491.139 812 395.342 812 395.342Z"
                fill="url(#paint0_linear_0_1)" />
        </mask>
        <g mask="url(#mask0_0_1)">
            <rect x="100" y="100" width="712" height="712" fill="url(#paint1_linear_0_1)" />
            <rect x="100" y="100" width="712" height="222" fill="url(#paint2_linear_0_1)" />
        </g>
    </g>
    <g filter="url(#filter1_d_0_1)">
        <mask id="mask1_0_1" style="mask-type:alpha" maskUnits="userSpaceOnUse" x="212" y="212"
            width="712" height="712">
            <path fill-rule="evenodd" clip-rule="evenodd"
                d="M924 507.342C924 498.893 924.003 490.442 923.952 481.992C923.909 474.874 923.827 467.757 923.634 460.642C923.215 445.135 922.3 429.495 919.541 414.161C916.743 398.605 912.174 384.127 904.974 369.994C897.896 356.102 888.649 343.39 877.617 332.369C866.587 321.348 853.867 312.111 839.965 305.039C825.811 297.84 811.313 293.274 795.735 290.478C780.393 287.724 764.743 286.811 749.23 286.393C742.108 286.2 734.985 286.119 727.861 286.075C719.403 286.023 710.946 286.027 702.488 286.027C702.488 286.027 642.638 285.676 604.288 285.676C567.565 285.676 567.565 212.255 530.842 212.255C493.178 211.52 434.38 212.607 434.38 212.607C425.906 212.607 417.432 212.603 408.958 212.654C401.819 212.698 394.684 212.78 387.547 212.972C371.998 213.391 356.313 214.305 340.935 217.062C325.336 219.857 310.816 224.421 296.644 231.616C282.712 238.688 269.964 247.926 258.911 258.949C247.86 269.969 238.596 282.678 231.505 296.567C224.285 310.708 219.707 325.194 216.902 340.758C214.14 356.087 213.225 371.722 212.804 387.222C212.613 394.338 212.53 401.454 212.486 408.572C212.435 417.023 212 427.52 212 435.971L212.003 531.062L212 605.268L212.439 702.38C212.439 710.842 212.435 719.303 212.486 727.765C212.53 734.893 212.613 742.019 212.805 749.144C213.225 764.671 214.142 780.333 216.906 795.689C219.71 811.265 224.287 825.763 231.501 839.915C238.594 853.827 247.859 866.555 258.911 877.592C269.964 888.628 282.708 897.877 296.637 904.959C310.818 912.168 325.345 916.74 340.953 919.539C356.324 922.297 372.004 923.212 387.547 923.631C394.684 923.824 401.82 923.906 408.959 923.949C417.433 924.001 425.906 923.997 434.38 923.997L531.714 924H605.343L702.488 923.997C710.946 923.997 719.403 924.001 727.861 923.949C734.985 923.906 742.108 923.824 749.23 923.631C764.749 923.211 780.404 922.296 795.753 919.536C811.322 916.737 825.813 912.166 839.959 904.962C853.863 897.881 866.586 888.63 877.617 877.592C888.647 866.557 897.893 853.83 904.971 839.921C912.176 825.762 916.745 811.257 919.545 795.67C922.301 780.321 923.215 764.665 923.634 749.144C923.827 742.018 923.909 734.892 923.952 727.765C924.004 719.303 924 710.842 924 702.38C924 702.38 923.995 606.983 923.995 605.268V604.405C923.995 603.139 924 507.342 924 507.342Z"
                fill="black" />
        </mask>
        <g mask="url(#mask1_0_1)">
            <rect x="212" y="212" width="712" height="712" fill="url(#paint3_linear_0_1)" />
            <rect x="212" y="212" width="712" height="222" fill="url(#paint4_linear_0_1)" />
        </g>
        <g filter="url(#filter2_d_0_1)">
            <path d="M568 519V679M568 679H408M568 679H728M568 679V839" stroke="#FFDFEE"
                stroke-width="48" stroke-linecap="round" stroke-linejoin="round" />
        </g>
    </g>
    <g filter="url(#filter3_d_0_1)">
        <path
            d="M1230.09 742C1220.12 742 1211.81 738.915 1205.17 732.744C1198.52 726.099 1195.2 718.029 1195.2 708.536V219.392C1195.2 209.424 1198.29 201.355 1204.46 195.184C1211.1 189.013 1219.17 185.928 1228.66 185.928H1400.26C1430.63 185.928 1457.69 192.099 1481.42 204.44C1505.63 216.781 1524.62 233.869 1538.38 255.704C1552.15 277.539 1559.03 302.696 1559.03 331.176C1559.03 355.384 1552.39 377.219 1539.1 396.68C1526.28 415.667 1508.95 430.381 1487.12 440.824C1518.45 448.893 1543.61 464.32 1562.59 487.104C1582.05 509.888 1591.78 539.317 1591.78 575.392C1591.78 608.144 1584.19 637.099 1569 662.256C1553.81 686.939 1532.69 706.4 1505.63 720.64C1479.05 734.88 1448.43 742 1413.78 742H1230.09ZM1262.13 679.344H1413.78C1436.09 679.344 1455.55 675.309 1472.17 667.24C1489.26 659.171 1502.55 647.541 1512.04 632.352C1522.01 616.688 1526.99 597.701 1526.99 575.392C1526.99 554.507 1522.01 536.944 1512.04 522.704C1502.55 508.464 1489.26 497.547 1472.17 489.952C1455.55 482.357 1436.09 478.56 1413.78 478.56H1262.13V679.344ZM1262.13 415.904H1400.26C1427.79 415.904 1450.33 408.784 1467.9 394.544C1485.93 379.829 1494.95 358.707 1494.95 331.176C1494.95 303.645 1485.93 282.997 1467.9 269.232C1450.33 255.467 1427.79 248.584 1400.26 248.584H1262.13V415.904ZM1860.86 744.848C1825.26 744.848 1793.46 736.304 1765.45 719.216C1737.45 702.128 1715.37 678.632 1699.23 648.728C1683.1 618.824 1675.03 585.123 1675.03 547.624C1675.03 509.651 1683.57 475.949 1700.66 446.52C1718.22 416.616 1741.72 393.12 1771.15 376.032C1801.05 358.469 1834.51 349.688 1871.54 349.688C1909.04 349.688 1942.5 358.469 1971.93 376.032C2001.36 393.12 2024.62 416.616 2041.71 446.52C2059.27 476.424 2068.29 510.125 2068.76 547.624L2043.13 554.032C2043.13 590.107 2035.06 622.621 2018.92 651.576C2002.78 680.531 1980.95 703.315 1953.42 719.928C1926.36 736.541 1895.51 744.848 1860.86 744.848ZM1871.54 686.464C1897.17 686.464 1919.95 680.531 1939.89 668.664C1959.83 656.323 1975.49 639.709 1986.88 618.824C1998.75 597.464 2004.68 573.731 2004.68 547.624C2004.68 521.043 1998.75 497.309 1986.88 476.424C1975.49 455.064 1959.83 438.451 1939.89 426.584C1919.95 414.243 1897.17 408.072 1871.54 408.072C1846.86 408.072 1824.31 414.243 1803.9 426.584C1783.49 438.451 1767.35 455.064 1755.48 476.424C1744.09 497.309 1738.39 521.043 1738.39 547.624C1738.39 573.731 1744.09 597.464 1755.48 618.824C1767.35 639.709 1783.49 656.323 1803.9 668.664C1824.31 680.531 1846.86 686.464 1871.54 686.464ZM2035.3 742.712C2025.81 742.712 2017.97 739.627 2011.8 733.456C2005.63 727.285 2002.55 719.453 2002.55 709.96V596.04L2016.07 527.688L2068.76 547.624V709.96C2068.76 719.453 2065.44 727.285 2058.79 733.456C2052.62 739.627 2044.79 742.712 2035.3 742.712ZM2351.27 744.848C2313.77 744.848 2280.31 736.304 2250.88 719.216C2221.45 701.653 2198.19 678.157 2181.1 648.728C2164.49 618.824 2156.18 585.123 2156.18 547.624C2156.18 509.176 2164.25 475 2180.39 445.096C2197 415.192 2219.55 391.933 2248.03 375.32C2276.51 358.232 2309.5 349.688 2347 349.688C2375 349.688 2400.87 355.147 2424.61 366.064C2448.34 376.981 2469.46 393.357 2487.98 415.192C2494.15 421.837 2496.28 428.957 2494.38 436.552C2492.96 444.147 2488.21 450.792 2480.14 456.488C2474.45 460.76 2467.8 462.184 2460.21 460.76C2452.61 459.336 2445.97 455.301 2440.27 448.656C2415.11 421.6 2384.02 408.072 2347 408.072C2321.84 408.072 2299.53 414.005 2280.07 425.872C2261.08 437.739 2246.13 454.115 2235.22 475C2224.77 495.411 2219.55 519.619 2219.55 547.624C2219.55 574.205 2225.01 597.939 2235.93 618.824C2247.32 639.709 2262.98 656.323 2282.92 668.664C2302.86 680.531 2325.64 686.464 2351.27 686.464C2368.83 686.464 2384.5 684.328 2398.26 680.056C2412.03 675.784 2424.37 668.901 2435.29 659.408C2441.93 653.712 2448.82 650.627 2455.94 650.152C2463.53 649.677 2470.18 651.813 2475.87 656.56C2482.99 662.731 2487.03 669.613 2487.98 677.208C2488.92 684.803 2486.31 691.448 2480.14 697.144C2445.97 728.947 2403.01 744.848 2351.27 744.848ZM2661.44 604.584L2621.57 560.44L2850.12 356.096C2856.29 349.925 2863.17 347.077 2870.77 347.552C2878.84 347.552 2885.72 350.875 2891.42 357.52C2897.59 364.165 2900.44 371.523 2899.96 379.592C2899.96 387.187 2896.64 393.832 2889.99 399.528L2661.44 604.584ZM2634.39 742C2624.89 742 2617.06 739.152 2610.89 733.456C2605.19 727.285 2602.35 719.453 2602.35 709.96V217.968C2602.35 208.475 2605.19 200.88 2610.89 195.184C2617.06 189.013 2624.89 185.928 2634.39 185.928C2643.88 185.928 2651.47 189.013 2657.17 195.184C2663.34 200.88 2666.43 208.475 2666.43 217.968V709.96C2666.43 719.453 2663.34 727.285 2657.17 733.456C2651.47 739.152 2643.88 742 2634.39 742ZM2892.13 738.44C2885.01 744.136 2877.18 746.509 2868.63 745.56C2860.56 745.085 2853.68 741.288 2847.99 734.168L2698.47 549.76L2743.32 507.04L2896.4 695.72C2902.1 702.365 2904.47 709.723 2903.52 717.792C2903.05 725.387 2899.25 732.269 2892.13 738.44ZM3174.3 745.56C3141.08 745.56 3111.41 738.677 3085.3 724.912C3059.2 710.672 3038.55 690.024 3023.36 662.968C3008.17 635.912 3000.58 602.923 3000.58 564V384.576C3000.58 375.557 3003.66 367.963 3009.83 361.792C3016.48 355.147 3024.31 351.824 3033.33 351.824C3042.82 351.824 3050.65 355.147 3056.82 361.792C3063.47 367.963 3066.79 375.557 3066.79 384.576V564C3066.79 591.531 3072.01 614.315 3082.46 632.352C3092.9 650.389 3106.9 663.917 3124.46 672.936C3142.5 681.48 3162.67 685.752 3184.98 685.752C3206.82 685.752 3226.04 681.48 3242.66 672.936C3259.74 664.392 3273.27 653 3283.24 638.76C3293.68 624.045 3298.9 607.669 3298.9 589.632H3341.62C3340.67 619.061 3332.84 645.643 3318.13 669.376C3303.89 693.109 3284.19 711.859 3259.03 725.624C3233.87 738.915 3205.63 745.56 3174.3 745.56ZM3331.66 742C3322.16 742 3314.33 738.915 3308.16 732.744C3301.99 726.573 3298.9 718.741 3298.9 709.248V384.576C3298.9 375.083 3301.99 367.251 3308.16 361.08C3314.33 354.909 3322.16 351.824 3331.66 351.824C3341.15 351.824 3348.98 354.909 3355.15 361.08C3361.32 367.251 3364.41 375.083 3364.41 384.576V709.248C3364.41 718.741 3361.32 726.573 3355.15 732.744C3348.98 738.915 3341.15 742 3331.66 742ZM3525.1 908.608C3515.6 908.608 3507.77 905.523 3501.6 899.352C3495.43 893.181 3492.35 885.349 3492.35 875.856V546.2C3492.82 509.176 3501.6 475.712 3518.69 445.808C3536.25 415.904 3559.75 392.408 3589.18 375.32C3618.61 358.232 3651.83 349.688 3688.86 349.688C3726.36 349.688 3759.82 358.469 3789.25 376.032C3819.15 393.12 3842.65 416.616 3859.74 446.52C3877.3 475.949 3886.08 509.651 3886.08 547.624C3886.08 585.123 3877.77 618.824 3861.16 648.728C3845.02 678.632 3822.95 702.128 3794.95 719.216C3766.94 736.304 3735.37 744.848 3700.25 744.848C3670.35 744.848 3643.29 738.677 3619.08 726.336C3594.87 713.995 3574.46 697.381 3557.85 676.496V875.856C3557.85 885.349 3554.76 893.181 3548.59 899.352C3542.9 905.523 3535.07 908.608 3525.1 908.608ZM3688.86 686.464C3714.01 686.464 3736.56 680.531 3756.5 668.664C3776.91 656.323 3792.81 639.709 3804.2 618.824C3816.07 597.464 3822 573.731 3822 547.624C3822 521.043 3816.07 497.309 3804.2 476.424C3792.81 455.064 3776.91 438.451 3756.5 426.584C3736.56 414.243 3714.01 408.072 3688.86 408.072C3663.7 408.072 3640.92 414.243 3620.51 426.584C3600.57 438.925 3584.91 455.539 3573.51 476.424C3562.12 497.309 3556.43 521.043 3556.43 547.624C3556.43 573.731 3562.12 597.464 3573.51 618.824C3584.91 639.709 3600.57 656.323 3620.51 668.664C3640.92 680.531 3663.7 686.464 3688.86 686.464ZM4438.63 753.392C4394.01 753.392 4354.37 745.085 4319.72 728.472C4285.55 711.384 4258.73 688.125 4239.27 658.696C4219.81 628.792 4210.08 594.853 4210.08 556.88V219.392C4210.08 209.899 4213.16 202.067 4219.33 195.896C4225.98 189.251 4234.05 185.928 4243.54 185.928C4253.51 185.928 4261.58 189.251 4267.75 195.896C4273.92 202.067 4277 209.899 4277 219.392V556.88C4277 583.461 4283.89 606.957 4297.65 627.368C4311.42 647.304 4330.4 663.205 4354.61 675.072C4379.29 686.464 4407.3 692.16 4438.63 692.16C4469.01 692.16 4496.06 686.464 4519.8 675.072C4543.53 663.205 4562.04 647.304 4575.33 627.368C4589.1 606.957 4595.98 583.461 4595.98 556.88V219.392C4595.98 209.899 4599.06 202.067 4605.24 195.896C4611.88 189.251 4619.95 185.928 4629.44 185.928C4639.41 185.928 4647.24 189.251 4652.94 195.896C4659.11 202.067 4662.2 209.899 4662.2 219.392V556.88C4662.2 594.853 4652.7 628.792 4633.72 658.696C4614.73 688.125 4588.38 711.384 4554.68 728.472C4520.98 745.085 4482.3 753.392 4438.63 753.392ZM4943.41 742C4919.2 742 4897.36 736.067 4877.9 724.2C4858.44 711.859 4843.25 695.483 4832.34 675.072C4821.42 654.187 4815.96 630.453 4815.96 603.872V261.4C4815.96 251.907 4818.81 244.075 4824.5 237.904C4830.67 231.733 4838.51 228.648 4848 228.648C4857.49 228.648 4865.32 231.733 4871.5 237.904C4877.67 244.075 4880.75 251.907 4880.75 261.4V603.872C4880.75 625.232 4886.68 642.795 4898.55 656.56C4910.42 670.325 4925.37 677.208 4943.41 677.208H4965.48C4973.55 677.208 4980.19 680.293 4985.42 686.464C4991.11 692.635 4993.96 700.467 4993.96 709.96C4993.96 719.453 4990.4 727.285 4983.28 733.456C4976.63 739.152 4967.85 742 4956.94 742H4943.41ZM4777.51 423.024C4768.97 423.024 4761.85 420.413 4756.15 415.192C4750.46 409.971 4747.61 403.325 4747.61 395.256C4747.61 386.712 4750.46 379.829 4756.15 374.608C4761.85 369.387 4768.97 366.776 4777.51 366.776H4949.1C4957.65 366.776 4964.77 369.387 4970.46 374.608C4976.16 379.829 4979.01 386.712 4979.01 395.256C4979.01 403.325 4976.16 409.971 4970.46 415.192C4964.77 420.413 4957.65 423.024 4949.1 423.024H4777.51ZM5125.23 742C5115.26 742 5107.19 738.915 5101.02 732.744C5094.85 726.573 5091.76 718.741 5091.76 709.248V385.288C5091.76 375.32 5094.85 367.488 5101.02 361.792C5107.19 355.621 5115.26 352.536 5125.23 352.536C5134.72 352.536 5142.55 355.621 5148.72 361.792C5154.9 367.488 5157.98 375.32 5157.98 385.288V709.248C5157.98 718.741 5154.9 726.573 5148.72 732.744C5142.55 738.915 5134.72 742 5125.23 742ZM5124.52 284.896C5112.65 284.896 5102.44 280.624 5093.9 272.08C5085.36 263.536 5081.08 253.093 5081.08 240.752C5081.08 228.411 5085.36 218.205 5093.9 210.136C5102.92 201.592 5113.36 197.32 5125.23 197.32C5136.62 197.32 5146.59 201.592 5155.13 210.136C5164.15 218.205 5168.66 228.411 5168.66 240.752C5168.66 253.093 5164.39 263.536 5155.84 272.08C5147.3 280.624 5136.86 284.896 5124.52 284.896ZM5383.6 742C5363.66 742 5345.86 736.541 5330.2 725.624C5314.53 714.707 5302.19 699.755 5293.17 680.768C5284.63 661.307 5280.36 638.997 5280.36 613.84V217.968C5280.36 208.475 5283.2 200.88 5288.9 195.184C5295.07 189.013 5302.9 185.928 5312.4 185.928C5322.36 185.928 5330.2 189.013 5335.89 195.184C5342.06 200.88 5345.15 208.475 5345.15 217.968V613.84C5345.15 632.352 5348.71 647.541 5355.83 659.408C5363.42 671.275 5372.68 677.208 5383.6 677.208H5401.4C5410.41 677.208 5417.53 680.293 5422.76 686.464C5427.98 692.16 5430.59 699.992 5430.59 709.96C5430.59 719.453 5426.55 727.285 5418.48 733.456C5410.89 739.152 5400.92 742 5388.58 742H5383.6ZM5545.2 742C5535.23 742 5527.16 738.915 5520.99 732.744C5514.82 726.573 5511.73 718.741 5511.73 709.248V385.288C5511.73 375.32 5514.82 367.488 5520.99 361.792C5527.16 355.621 5535.23 352.536 5545.2 352.536C5554.69 352.536 5562.52 355.621 5568.69 361.792C5574.86 367.488 5577.95 375.32 5577.95 385.288V709.248C5577.95 718.741 5574.86 726.573 5568.69 732.744C5562.52 738.915 5554.69 742 5545.2 742ZM5544.49 284.896C5532.62 284.896 5522.41 280.624 5513.87 272.08C5505.33 263.536 5501.05 253.093 5501.05 240.752C5501.05 228.411 5505.33 218.205 5513.87 210.136C5522.89 201.592 5533.33 197.32 5545.2 197.32C5556.59 197.32 5566.56 201.592 5575.1 210.136C5584.12 218.205 5588.63 228.411 5588.63 240.752C5588.63 253.093 5584.36 263.536 5575.81 272.08C5567.27 280.624 5556.83 284.896 5544.49 284.896ZM5860.52 742C5836.32 742 5814.48 736.067 5795.02 724.2C5775.56 711.859 5760.37 695.483 5749.45 675.072C5738.54 654.187 5733.08 630.453 5733.08 603.872V261.4C5733.08 251.907 5735.92 244.075 5741.62 237.904C5747.79 231.733 5755.62 228.648 5765.12 228.648C5774.61 228.648 5782.44 231.733 5788.61 237.904C5794.78 244.075 5797.87 251.907 5797.87 261.4V603.872C5797.87 625.232 5803.8 642.795 5815.67 656.56C5827.54 670.325 5842.49 677.208 5860.52 677.208H5882.6C5890.67 677.208 5897.31 680.293 5902.53 686.464C5908.23 692.635 5911.08 700.467 5911.08 709.96C5911.08 719.453 5907.52 727.285 5900.4 733.456C5893.75 739.152 5884.97 742 5874.05 742H5860.52ZM5694.63 423.024C5686.08 423.024 5678.96 420.413 5673.27 415.192C5667.57 409.971 5664.72 403.325 5664.72 395.256C5664.72 386.712 5667.57 379.829 5673.27 374.608C5678.96 369.387 5686.08 366.776 5694.63 366.776H5866.22C5874.76 366.776 5881.88 369.387 5887.58 374.608C5893.28 379.829 5896.12 386.712 5896.12 395.256C5896.12 403.325 5893.28 409.971 5887.58 415.192C5881.88 420.413 5874.76 423.024 5866.22 423.024H5694.63ZM6042.35 742C6032.38 742 6024.31 738.915 6018.14 732.744C6011.97 726.573 6008.88 718.741 6008.88 709.248V385.288C6008.88 375.32 6011.97 367.488 6018.14 361.792C6024.31 355.621 6032.38 352.536 6042.35 352.536C6051.84 352.536 6059.67 355.621 6065.84 361.792C6072.01 367.488 6075.1 375.32 6075.1 385.288V709.248C6075.1 718.741 6072.01 726.573 6065.84 732.744C6059.67 738.915 6051.84 742 6042.35 742ZM6041.63 284.896C6029.77 284.896 6019.56 280.624 6011.02 272.08C6002.47 263.536 5998.2 253.093 5998.2 240.752C5998.2 228.411 6002.47 218.205 6011.02 210.136C6020.04 201.592 6030.48 197.32 6042.35 197.32C6053.74 197.32 6063.71 201.592 6072.25 210.136C6081.27 218.205 6085.78 228.411 6085.78 240.752C6085.78 253.093 6081.51 263.536 6072.96 272.08C6064.42 280.624 6053.98 284.896 6041.63 284.896ZM6392.56 744.848C6353.16 744.848 6318.28 736.541 6287.9 719.928C6257.99 702.84 6234.5 679.581 6217.41 650.152C6200.32 620.248 6191.78 586.072 6191.78 547.624C6191.78 508.701 6199.85 474.525 6215.98 445.096C6232.12 415.192 6254.43 391.933 6282.91 375.32C6311.39 358.232 6344.38 349.688 6381.88 349.688C6418.43 349.688 6450 357.995 6476.58 374.608C6503.16 390.747 6523.57 413.293 6537.81 442.248C6552.05 470.728 6559.17 503.717 6559.17 541.216C6559.17 549.285 6556.32 556.168 6550.62 561.864C6545.4 567.085 6538.28 569.696 6529.26 569.696H6236.63V517.008H6529.98L6500.78 537.656C6500.31 512.499 6495.33 489.952 6485.83 470.016C6476.34 450.08 6462.81 434.416 6445.25 423.024C6427.69 411.632 6406.56 405.936 6381.88 405.936C6354.82 405.936 6331.33 412.107 6311.39 424.448C6291.93 436.789 6276.98 453.64 6266.54 475C6256.09 496.36 6250.87 520.568 6250.87 547.624C6250.87 574.68 6256.81 598.888 6268.67 620.248C6281.01 641.133 6297.63 657.747 6318.51 670.088C6339.87 682.429 6364.56 688.6 6392.56 688.6C6407.75 688.6 6423.41 685.752 6439.55 680.056C6456.17 674.36 6469.22 667.715 6478.71 660.12C6485.36 654.899 6492.48 652.288 6500.07 652.288C6507.67 651.813 6514.31 653.949 6520.01 658.696C6527.13 665.341 6530.93 672.699 6531.4 680.768C6531.88 688.363 6528.55 695.008 6521.43 700.704C6505.29 713.52 6485.12 724.2 6460.91 732.744C6437.18 740.813 6414.4 744.848 6392.56 744.848ZM6791.4 744.848C6760.07 744.848 6730.4 740.101 6702.4 730.608C6674.39 720.64 6652.32 707.112 6636.18 690.024C6630.01 682.904 6627.4 675.072 6628.35 666.528C6629.3 657.984 6633.57 650.627 6641.17 644.456C6649.23 638.285 6657.54 635.675 6666.09 636.624C6674.63 637.573 6681.75 641.371 6687.45 648.016C6696.94 658.459 6710.7 667.477 6728.74 675.072C6747.25 682.667 6767.43 686.464 6789.26 686.464C6820.11 686.464 6842.9 681.48 6857.61 671.512C6872.8 661.069 6880.63 648.253 6881.11 633.064C6881.11 617.4 6873.75 604.347 6859.04 593.904C6844.32 582.987 6818.45 574.443 6781.43 568.272C6733.49 559.253 6698.6 545.251 6676.77 526.264C6654.93 507.277 6644.01 484.256 6644.01 457.2C6644.01 432.992 6650.66 413.056 6663.95 397.392C6677.71 381.253 6695.51 369.387 6717.35 361.792C6739.66 353.723 6763.15 349.688 6787.84 349.688C6819.17 349.688 6846.7 354.909 6870.43 365.352C6894.16 375.32 6913.15 389.323 6927.39 407.36C6933.56 414.48 6936.17 421.837 6935.22 429.432C6934.75 437.027 6930.95 443.435 6923.83 448.656C6916.71 452.928 6908.4 454.352 6898.91 452.928C6889.89 451.504 6882.3 447.469 6876.13 440.824C6864.26 428.483 6850.97 419.939 6836.25 415.192C6822.01 409.971 6805.4 407.36 6786.41 407.36C6763.63 407.36 6744.64 411.632 6729.45 420.176C6714.74 428.72 6707.38 440.349 6707.38 455.064C6707.38 464.557 6709.75 472.864 6714.5 479.984C6719.72 487.104 6729.22 493.749 6742.98 499.92C6756.75 505.616 6776.45 510.837 6802.08 515.584C6837.68 522.229 6865.68 531.011 6886.09 541.928C6906.98 552.845 6921.93 565.661 6930.95 580.376C6939.97 595.091 6944.48 611.704 6944.48 630.216C6944.48 652.051 6938.31 671.749 6925.97 689.312C6914.1 706.4 6896.77 719.928 6873.99 729.896C6851.21 739.864 6823.67 744.848 6791.4 744.848Z"
            fill="#DD2FC1" />
    </g>
    <defs>
        <filter id="filter0_d_0_1" x="85" y="85" width="742" height="742"
            filterUnits="userSpaceOnUse" color-interpolation-filters="sRGB">
            <feFlood flood-opacity="0" result="BackgroundImageFix" />
            <feColorMatrix in="SourceAlpha" type="matrix"
                values="0 0 0 0 0 0 0 0 0 0 0 0 0 0 0 0 0 0 127 0" result="hardAlpha" />
            <feOffset />
            <feGaussianBlur stdDeviation="7.5" />
            <feComposite in2="hardAlpha" operator="out" />
            <feColorMatrix type="matrix" values="0 0 0 0 0 0 0 0 0 0 0 0 0 0 0 0 0 0 0.1 0" />
            <feBlend mode="multiply" in2="BackgroundImageFix" result="effect1_dropShadow_0_1" />
            <feBlend mode="normal" in="SourceGraphic" in2="effect1_dropShadow_0_1" result="shape" />
        </filter>
        <filter id="filter1_d_0_1" x="197" y="197" width="742" height="742"
            filterUnits="userSpaceOnUse" color-interpolation-filters="sRGB">
            <feFlood flood-opacity="0" result="BackgroundImageFix" />
            <feColorMatrix in="SourceAlpha" type="matrix"
                values="0 0 0 0 0 0 0 0 0 0 0 0 0 0 0 0 0 0 127 0" result="hardAlpha" />
            <feOffset />
            <feGaussianBlur stdDeviation="7.5" />
            <feComposite in2="hardAlpha" operator="out" />
            <feColorMatrix type="matrix" values="0 0 0 0 0 0 0 0 0 0 0 0 0 0 0 0 0 0 0.1 0" />
            <feBlend mode="multiply" in2="BackgroundImageFix" result="effect1_dropShadow_0_1" />
            <feBlend mode="normal" in="SourceGraphic" in2="effect1_dropShadow_0_1" result="shape" />
        </filter>
        <filter id="filter2_d_0_1" x="369" y="480" width="398" height="398"
            filterUnits="userSpaceOnUse" color-interpolation-filters="sRGB">
            <feFlood flood-opacity="0" result="BackgroundImageFix" />
            <feColorMatrix in="SourceAlpha" type="matrix"
                values="0 0 0 0 0 0 0 0 0 0 0 0 0 0 0 0 0 0 127 0" result="hardAlpha" />
            <feOffset />
            <feGaussianBlur stdDeviation="7.5" />
            <feComposite in2="hardAlpha" operator="out" />
            <feColorMatrix type="matrix" values="0 0 0 0 0 0 0 0 0 0 0 0 0 0 0 0 0 0 0.1 0" />
            <feBlend mode="multiply" in2="BackgroundImageFix" result="effect1_dropShadow_0_1" />
            <feBlend mode="normal" in="SourceGraphic" in2="effect1_dropShadow_0_1" result="shape" />
        </filter>
        <filter id="filter3_d_0_1" x="1180.2" y="170.928" width="5779.28" height="752.68"
            filterUnits="userSpaceOnUse" color-interpolation-filters="sRGB">
            <feFlood flood-opacity="0" result="BackgroundImageFix" />
            <feColorMatrix in="SourceAlpha" type="matrix"
                values="0 0 0 0 0 0 0 0 0 0 0 0 0 0 0 0 0 0 127 0" result="hardAlpha" />
            <feOffset />
            <feGaussianBlur stdDeviation="7.5" />
            <feComposite in2="hardAlpha" operator="out" />
            <feColorMatrix type="matrix" values="0 0 0 0 0 0 0 0 0 0 0 0 0 0 0 0 0 0 0.1 0" />
            <feBlend mode="multiply" in2="BackgroundImageFix" result="effect1_dropShadow_0_1" />
            <feBlend mode="normal" in="SourceGraphic" in2="effect1_dropShadow_0_1" result="shape" />
        </filter>
        <linearGradient id="paint0_linear_0_1" x1="100" y1="100" x2="456" y2="812"
            gradientUnits="userSpaceOnUse">
            <stop stop-color="#FFBD3C" />
            <stop offset="1" stop-color="#E89D0A" />
        </linearGradient>
        <linearGradient id="paint1_linear_0_1" x1="100" y1="100" x2="456" y2="812"
            gradientUnits="userSpaceOnUse">
            <stop stop-color="#FF64AE" />
            <stop offset="1" stop-color="#B51069" />
        </linearGradient>
        <linearGradient id="paint2_linear_0_1" x1="456" y1="100" x2="456" y2="322"
            gradientUnits="userSpaceOnUse">
            <stop stop-color="#FF3C99" />
            <stop offset="1" stop-color="#CB2C78" />
        </linearGradient>
        <linearGradient id="paint3_linear_0_1" x1="212" y1="212" x2="568" y2="924"
            gradientUnits="userSpaceOnUse">
            <stop stop-color="#E85AC0" />
            <stop offset="1" stop-color="#DD2FC1" />
        </linearGradient>
        <linearGradient id="paint4_linear_0_1" x1="568" y1="212" x2="568" y2="434"
            gradientUnits="userSpaceOnUse">
            <stop stop-color="#F5479A" stop-opacity="0.5" />
            <stop offset="1" stop-color="#CB39A2" />
            <stop offset="1" stop-color="#F15FA5" />
        </linearGradient>
    </defs>
</svg>
